<mxfile host="app.diagrams.net" modified="2021-02-28T04:47:53.251Z" agent="5.0 (Windows NT 10.0; Win64; x64) AppleWebKit/537.36 (KHTML, like Gecko) Chrome/88.0.4324.190 Safari/537.36" etag="zwbm4Vy1p2-YfjKmqTw9" version="14.4.3" type="github">
  <diagram name="Page-1" id="e7e014a7-5840-1c2e-5031-d8a46d1fe8dd">
    <mxGraphModel dx="1038" dy="548" grid="1" gridSize="10" guides="1" tooltips="1" connect="1" arrows="1" fold="1" page="1" pageScale="1" pageWidth="1169" pageHeight="826" background="#ffffff" math="0" shadow="0">
      <root>
        <mxCell id="0" />
        <mxCell id="1" parent="0" />
        <mxCell id="vgXzkwaurRQH-fuamJpq-45" value="数据开放平台" style="shape=umlLifeline;perimeter=lifelinePerimeter;whiteSpace=wrap;html=1;container=1;collapsible=0;recursiveResize=0;outlineConnect=0;" vertex="1" parent="1">
          <mxGeometry x="397" y="150" width="100" height="300" as="geometry" />
        </mxCell>
        <mxCell id="vgXzkwaurRQH-fuamJpq-51" value="" style="html=1;points=[];perimeter=orthogonalPerimeter;" vertex="1" parent="vgXzkwaurRQH-fuamJpq-45">
          <mxGeometry x="45" y="100" width="10" height="50" as="geometry" />
        </mxCell>
        <mxCell id="vgXzkwaurRQH-fuamJpq-46" value="iTop工具" style="shape=umlLifeline;perimeter=lifelinePerimeter;whiteSpace=wrap;html=1;container=1;collapsible=0;recursiveResize=0;outlineConnect=0;" vertex="1" parent="1">
          <mxGeometry x="573" y="150" width="100" height="300" as="geometry" />
        </mxCell>
        <mxCell id="vgXzkwaurRQH-fuamJpq-47" value="aiCore" style="shape=umlLifeline;perimeter=lifelinePerimeter;whiteSpace=wrap;html=1;container=1;collapsible=0;recursiveResize=0;outlineConnect=0;" vertex="1" parent="1">
          <mxGeometry x="750" y="150" width="100" height="300" as="geometry" />
        </mxCell>
        <mxCell id="vgXzkwaurRQH-fuamJpq-48" value="" style="shape=umlLifeline;participant=umlActor;perimeter=lifelinePerimeter;whiteSpace=wrap;html=1;container=1;collapsible=0;recursiveResize=0;verticalAlign=top;spacingTop=36;outlineConnect=0;" vertex="1" parent="1">
          <mxGeometry x="260" y="170" width="20" height="300" as="geometry" />
        </mxCell>
        <mxCell id="vgXzkwaurRQH-fuamJpq-54" value="" style="html=1;points=[];perimeter=orthogonalPerimeter;" vertex="1" parent="vgXzkwaurRQH-fuamJpq-48">
          <mxGeometry x="5" y="80" width="10" height="60" as="geometry" />
        </mxCell>
        <mxCell id="vgXzkwaurRQH-fuamJpq-55" value="" style="html=1;points=[];perimeter=orthogonalPerimeter;" vertex="1" parent="vgXzkwaurRQH-fuamJpq-48">
          <mxGeometry x="10" y="190" width="10" height="80" as="geometry" />
        </mxCell>
        <mxCell id="vgXzkwaurRQH-fuamJpq-49" value="数据管理员" style="text;align=center;fontStyle=1;verticalAlign=middle;spacingLeft=3;spacingRight=3;strokeColor=none;rotatable=0;points=[[0,0.5],[1,0.5]];portConstraint=eastwest;" vertex="1" parent="1">
          <mxGeometry x="220" y="144" width="80" height="26" as="geometry" />
        </mxCell>
        <mxCell id="vgXzkwaurRQH-fuamJpq-52" value="创建数据集" style="html=1;verticalAlign=bottom;endArrow=block;entryX=0;entryY=0;" edge="1" target="vgXzkwaurRQH-fuamJpq-51" parent="1" source="vgXzkwaurRQH-fuamJpq-48">
          <mxGeometry relative="1" as="geometry">
            <mxPoint x="372" y="250" as="sourcePoint" />
          </mxGeometry>
        </mxCell>
        <mxCell id="vgXzkwaurRQH-fuamJpq-53" value="创建成功" style="html=1;verticalAlign=bottom;endArrow=open;dashed=1;endSize=8;" edge="1" parent="1">
          <mxGeometry relative="1" as="geometry">
            <mxPoint x="271" y="300" as="targetPoint" />
            <mxPoint x="444" y="300" as="sourcePoint" />
            <Array as="points">
              <mxPoint x="271" y="300" />
            </Array>
          </mxGeometry>
        </mxCell>
      </root>
    </mxGraphModel>
  </diagram>
</mxfile>
